<svg width="24" height="24" viewBox="0 0 24 24" fill="none" xmlns="http://www.w3.org/2000/svg">
<path d="M14.8569 19.4289C14.0947 20.5717 13.1427 21.1431 11.9998 21.1431C10.8569 21.1431 9.90494 20.5717 9.14266 19.4289M17.8112 17.7146H6.18837C5.85447 17.7147 5.52652 17.6262 5.23803 17.4581C4.94954 17.29 4.71086 17.0483 4.54639 16.7577C4.38192 16.4671 4.29755 16.1381 4.30192 15.8042C4.30628 15.4703 4.39922 15.1436 4.57123 14.8574C5.69286 12.988 6.2854 10.8489 6.28551 8.66885V7.42885C6.28551 6.21643 6.76714 5.05367 7.62445 4.19636C8.48176 3.33905 9.64452 2.85742 10.8569 2.85742H13.1427C14.3551 2.85742 15.5178 3.33905 16.3751 4.19636C17.2325 5.05367 17.7141 6.21643 17.7141 7.42885V8.66885C17.7141 10.8483 18.3061 12.9889 19.4284 14.8574C19.6004 15.1436 19.6933 15.4703 19.6977 15.8042C19.702 16.1381 19.6177 16.4671 19.4532 16.7577C19.2887 17.0483 19.0501 17.29 18.7616 17.4581C18.4731 17.6262 18.1451 17.7147 17.8112 17.7146Z" stroke="#535E82" stroke-width="1.5" stroke-linecap="round" stroke-linejoin="round"/>
</svg>
