<svg width="20" height="20" viewBox="0 0 20 20" fill="none" xmlns="http://www.w3.org/2000/svg">
<path fill-rule="evenodd" clip-rule="evenodd" d="M6.66669 1.66671C6.66669 1.20647 6.29359 0.833374 5.83335 0.833374C5.37312 0.833374 5.00002 1.20647 5.00002 1.66671V2.50004H4.16669C3.50365 2.50004 2.86776 2.76343 2.39892 3.23227C1.93008 3.70111 1.66669 4.337 1.66669 5.00004V15.8334C1.66669 16.4964 1.93008 17.1323 2.39892 17.6011C2.86776 18.07 3.50365 18.3334 4.16669 18.3334H15.8334C16.4964 18.3334 17.1323 18.07 17.6011 17.6011C18.07 17.1323 18.3334 16.4964 18.3334 15.8334V5.00004C18.3334 4.337 18.07 3.70111 17.6011 3.23227C17.1323 2.76343 16.4964 2.50004 15.8334 2.50004H15.4167C14.9564 2.50004 14.5834 2.87314 14.5834 3.33337C14.5834 3.79361 14.9564 4.16671 15.4167 4.16671H15.8334C16.0544 4.16671 16.2663 4.2545 16.4226 4.41079C16.5789 4.56707 16.6667 4.77903 16.6667 5.00004V7.50004H3.33335V5.00004C3.33335 4.77903 3.42115 4.56707 3.57743 4.41079C3.73371 4.2545 3.94567 4.16671 4.16669 4.16671H5.00002V5.00004C5.00002 5.46028 5.37312 5.83337 5.83335 5.83337C6.29359 5.83337 6.66669 5.46028 6.66669 5.00004V1.66671ZM3.57743 16.4226C3.42115 16.2663 3.33335 16.0544 3.33335 15.8334V9.16671H16.6667V15.8334C16.6667 16.0544 16.5789 16.2663 16.4226 16.4226C16.2663 16.5789 16.0544 16.6667 15.8334 16.6667H4.16669C3.94567 16.6667 3.73371 16.5789 3.57743 16.4226Z" fill="#8A8C91"/>
<path d="M13.3334 1.66671C13.3334 1.20647 12.9603 0.833374 12.5 0.833374C12.0398 0.833374 11.6667 1.20647 11.6667 1.66671V2.50004H8.75002C8.28978 2.50004 7.91669 2.87314 7.91669 3.33337C7.91669 3.79361 8.28978 4.16671 8.75002 4.16671H11.6667V5.00004C11.6667 5.46028 12.0398 5.83337 12.5 5.83337C12.9603 5.83337 13.3334 5.46028 13.3334 5.00004V1.66671Z" fill="#8A8C91"/>
</svg>
