<svg width="21" height="21" viewBox="0 0 21 21" fill="none" xmlns="http://www.w3.org/2000/svg">
<path d="M1 10.5C1 15.7468 5.25315 20 10.5 20C15.7468 20 20 15.7468 20 10.5C20 5.25315 15.7468 1 10.5 1C5.25315 1 1 5.25315 1 10.5Z" stroke="#535E82" stroke-width="1.4" stroke-linecap="round" stroke-linejoin="round"/>
<path d="M11.4494 1.04742C11.4494 1.04742 14.2994 4.79992 14.2994 10.4999C14.2994 16.1999 11.4494 19.9524 11.4494 19.9524M9.54937 19.9524C9.54937 19.9524 6.69937 16.1999 6.69937 10.4999C6.69937 4.79992 9.54937 1.04742 9.54937 1.04742M1.59787 13.8249H19.4009M1.59787 7.17492H19.4009" stroke="#535E82" stroke-width="1.4" stroke-linecap="round" stroke-linejoin="round"/>
</svg>
