<svg width="17" height="16" viewBox="0 0 17 16" fill="none" xmlns="http://www.w3.org/2000/svg">
<path fill-rule="evenodd" clip-rule="evenodd" d="M6.68265 2.00004C6.68265 1.76935 6.56338 1.55505 6.36733 1.43347C6.17128 1.31189 5.9263 1.30031 5.71965 1.40285C4.5523 1.9821 3.56994 2.87587 2.88329 3.98345C2.19674 5.09086 1.83309 6.36799 1.83331 7.67094C1.83229 9.24946 2.36518 10.7819 3.34537 12.0193C4.32555 13.2566 5.69541 14.126 7.23228 14.4862C8.76915 14.8465 10.3827 14.6763 11.8106 14.0034C13.2385 13.3305 14.3969 12.1945 15.0974 10.7799C15.1997 10.5732 15.188 10.3284 15.0664 10.1325C14.9448 9.93654 14.7306 9.81737 14.5 9.81737C11.7657 9.81737 9.84494 9.13952 8.60265 7.89715C7.36035 6.65477 6.68265 4.73396 6.68265 2.00004ZM4.01651 4.68601C4.38034 4.09915 4.84674 3.58644 5.39057 3.17077C5.56471 5.55822 6.29442 7.47445 7.65981 8.83993C9.02545 10.2057 10.9421 10.9355 13.3304 11.1095C12.7829 11.8272 12.0683 12.408 11.2422 12.7973C10.0865 13.3419 8.78049 13.4796 7.53655 13.1881C6.29262 12.8965 5.18386 12.1928 4.3905 11.1913C3.59714 10.1898 3.16582 8.94946 3.16665 7.67181C3.16638 6.61701 3.46072 5.5825 4.01651 4.68601Z" fill="#C0C0C0"/>
</svg>
