<svg width="15" height="19" viewBox="0 0 15 19" fill="none" xmlns="http://www.w3.org/2000/svg">
<path d="M7.5 1.66667C5.9529 1.66667 4.46917 2.28125 3.37521 3.37521C2.28125 4.46917 1.66667 5.9529 1.66667 7.5C1.66667 9.885 3.15167 12.1858 4.78167 13.9683C5.61557 14.8759 6.52494 15.7111 7.5 16.465C8.47504 15.7117 9.38442 14.877 10.2183 13.97C11.8483 12.1858 13.3333 9.88583 13.3333 7.5C13.3333 5.9529 12.7188 4.46917 11.6248 3.37521C10.5308 2.28125 9.0471 1.66667 7.5 1.66667ZM7.5 18.5117L7.0275 18.1867L7.025 18.185L7.02 18.1808L7.00333 18.1692L6.94083 18.125C6.59578 17.8742 6.2584 17.6129 5.92917 17.3417C5.08531 16.6485 4.29088 15.8972 3.55167 15.0933C1.84833 13.23 0 10.5308 0 7.5C2.96403e-08 5.51088 0.790176 3.60322 2.1967 2.1967C3.60322 0.790176 5.51088 0 7.5 0C9.48912 0 11.3968 0.790176 12.8033 2.1967C14.2098 3.60322 15 5.51088 15 7.5C15 10.5308 13.1517 13.2308 11.4483 15.0933C10.4832 16.1431 9.4244 17.1026 8.285 17.96C8.19006 18.0309 8.09422 18.1007 7.9975 18.1692L7.98 18.1808L7.975 18.185L7.97333 18.1858L7.5 18.5108V18.5117ZM7.5 5.83333C7.05797 5.83333 6.63405 6.00893 6.32149 6.32149C6.00893 6.63405 5.83333 7.05797 5.83333 7.5C5.83333 7.94203 6.00893 8.36595 6.32149 8.67851C6.63405 8.99107 7.05797 9.16667 7.5 9.16667C7.94203 9.16667 8.36595 8.99107 8.67851 8.67851C8.99107 8.36595 9.16667 7.94203 9.16667 7.5C9.16667 7.05797 8.99107 6.63405 8.67851 6.32149C8.36595 6.00893 7.94203 5.83333 7.5 5.83333ZM4.16667 7.5C4.16667 6.61594 4.51786 5.7681 5.14298 5.14298C5.7681 4.51786 6.61594 4.16667 7.5 4.16667C8.38406 4.16667 9.2319 4.51786 9.85702 5.14298C10.4821 5.7681 10.8333 6.61594 10.8333 7.5C10.8333 8.38406 10.4821 9.2319 9.85702 9.85702C9.2319 10.4821 8.38406 10.8333 7.5 10.8333C6.61594 10.8333 5.7681 10.4821 5.14298 9.85702C4.51786 9.2319 4.16667 8.38406 4.16667 7.5Z" fill="#CCCCCC"/>
</svg>
