<svg width="13" height="20" viewBox="0 0 13 20" fill="none" xmlns="http://www.w3.org/2000/svg">
<path d="M5.2 15C5.02761 15 4.86228 15.0658 4.74038 15.1831C4.61848 15.3003 4.55 15.4592 4.55 15.625C4.55 15.7908 4.61848 15.9497 4.74038 16.0669C4.86228 16.1842 5.02761 16.25 5.2 16.25H7.8C7.97239 16.25 8.13772 16.1842 8.25962 16.0669C8.38152 15.9497 8.45 15.7908 8.45 15.625C8.45 15.4592 8.38152 15.3003 8.25962 15.1831C8.13772 15.0658 7.97239 15 7.8 15H5.2ZM2.6 0C1.91044 0 1.24912 0.263392 0.761522 0.732233C0.273928 1.20107 0 1.83696 0 2.5V17.5C0 18.163 0.273928 18.7989 0.761522 19.2678C1.24912 19.7366 1.91044 20 2.6 20H10.4C11.0896 20 11.7509 19.7366 12.2385 19.2678C12.7261 18.7989 13 18.163 13 17.5V2.5C13 1.83696 12.7261 1.20107 12.2385 0.732233C11.7509 0.263392 11.0896 0 10.4 0H2.6ZM1.3 2.5C1.3 2.16848 1.43696 1.85054 1.68076 1.61612C1.92456 1.3817 2.25522 1.25 2.6 1.25H10.4C10.7448 1.25 11.0754 1.3817 11.3192 1.61612C11.563 1.85054 11.7 2.16848 11.7 2.5V17.5C11.7 17.8315 11.563 18.1495 11.3192 18.3839C11.0754 18.6183 10.7448 18.75 10.4 18.75H2.6C2.25522 18.75 1.92456 18.6183 1.68076 18.3839C1.43696 18.1495 1.3 17.8315 1.3 17.5V2.5Z" fill="#CCCCCC"/>
</svg>
