<svg width="20" height="20" viewBox="0 0 20 20" fill="none" xmlns="http://www.w3.org/2000/svg">
<path fill-rule="evenodd" clip-rule="evenodd" d="M13 1.66669C12.6464 1.66669 12.3073 1.80716 12.0572 2.05721C11.8072 2.30726 11.6667 2.6464 11.6667 3.00002V6.66669H8.00002C7.6464 6.66669 7.30726 6.80716 7.05721 7.05721C6.80716 7.30726 6.66669 7.6464 6.66669 8.00002V12.5H3.00002C2.6464 12.5 2.30726 12.6405 2.05721 12.8905C1.80716 13.1406 1.66669 13.4797 1.66669 13.8334V17C1.66669 17.3536 1.80716 17.6928 2.05721 17.9428C2.30726 18.1929 2.6464 18.3333 3.00002 18.3333H17C17.3536 18.3333 17.6928 18.1929 17.9428 17.9428C18.1929 17.6928 18.3333 17.3536 18.3333 17V3.00002C18.3333 2.6464 18.1929 2.30726 17.9428 2.05721C17.6928 1.80716 17.3536 1.66669 17 1.66669H13ZM8.33335 8.33335H11.6667V16.6667H8.33335V8.33335ZM16.6667 16.6667H13.3334V3.33335H16.6667V16.6667ZM6.66669 14.1667V16.6667H3.33335V14.1667H6.66669Z" fill="#8A8C91"/>
</svg>
