<svg width="20" height="20" viewBox="0 0 20 20" fill="none" xmlns="http://www.w3.org/2000/svg">
<g clip-path="url(#clip0_1_2141)">
<path fill-rule="evenodd" clip-rule="evenodd" d="M9.99998 6.66671C9.11592 6.66671 8.26808 7.0179 7.64296 7.64302C7.01783 8.26814 6.66665 9.11599 6.66665 10C6.66665 10.8841 7.01783 11.7319 7.64296 12.3571C8.26808 12.9822 9.11592 13.3334 9.99998 13.3334C10.884 13.3334 11.7319 12.9822 12.357 12.3571C12.9821 11.7319 13.3333 10.8841 13.3333 10C13.3333 9.11599 12.9821 8.26814 12.357 7.64302C11.7319 7.0179 10.884 6.66671 9.99998 6.66671ZM8.82147 8.82153C9.13403 8.50897 9.55795 8.33337 9.99998 8.33337C10.442 8.33337 10.8659 8.50897 11.1785 8.82153C11.4911 9.13409 11.6666 9.55801 11.6666 10C11.6666 10.4421 11.4911 10.866 11.1785 11.1786C10.8659 11.4911 10.442 11.6667 9.99998 11.6667C9.55795 11.6667 9.13403 11.4911 8.82147 11.1786C8.50891 10.866 8.33331 10.4421 8.33331 10C8.33331 9.55801 8.50891 9.13409 8.82147 8.82153Z" fill="#8A8C91"/>
<path fill-rule="evenodd" clip-rule="evenodd" d="M9.15081 0.833374C8.77227 0.833374 8.44129 1.08851 8.34493 1.45458L7.92263 3.05891L6.58093 3.62451L5.55389 2.71077C5.22413 2.4174 4.72282 2.43202 4.41072 2.74412L2.74406 4.41078C2.44214 4.7127 2.41727 5.19398 2.68645 5.52541L3.58656 6.63367L3.03459 7.9916L1.47719 8.3552C1.10008 8.44323 0.833313 8.77946 0.833313 9.16671V10.8334C0.833313 11.2091 1.0848 11.5384 1.44733 11.6373L3.05706 12.0765L3.62418 13.4218L2.71136 14.4454C2.41735 14.7751 2.4317 15.2769 2.74406 15.5893L4.41072 17.256C4.71305 17.5583 5.19512 17.5828 5.52652 17.3126L6.63438 16.4095L7.95894 16.9544L8.35867 18.5374C8.45211 18.9074 8.78499 19.1667 9.16665 19.1667H10.8333C11.2148 19.1667 11.5476 18.9076 11.6412 18.5378L12.0419 16.9541L13.4108 16.3871C13.5486 16.5026 13.7066 16.6383 13.8638 16.7752C14.02 16.9112 14.1652 17.0394 14.2714 17.1337C14.3245 17.1808 14.3677 17.2193 14.3976 17.246L14.4429 17.2864C14.7724 17.5821 15.2762 17.569 15.5892 17.256L17.2559 15.5893C17.5626 15.2826 17.5828 14.7919 17.3022 14.4611L16.3945 13.3906L16.9562 12.0339L18.5429 11.6216C18.9102 11.5261 19.1666 11.1946 19.1666 10.815V9.16671C19.1666 8.78561 18.9081 8.45306 18.5388 8.3591L16.9619 7.95791L16.4016 6.60449L17.3031 5.538C17.5828 5.20712 17.5623 4.71713 17.2559 4.41078L15.5892 2.74412C15.2816 2.43652 14.7892 2.41727 14.4585 2.69991L13.3999 3.60477L11.9988 3.0287L11.5851 1.45485C11.4888 1.08865 11.1578 0.833374 10.7791 0.833374H9.15081ZM15.5346 14.9536L14.9645 15.5237L14.9583 15.5182C14.6505 15.2503 14.254 14.9111 14.0305 14.7513C13.7965 14.584 13.4927 14.5492 13.2269 14.6593L11.0178 15.5743C10.7746 15.675 10.5933 15.8847 10.5288 16.1398L10.1846 17.5H9.81571L9.47212 16.1393C9.40748 15.8834 9.22535 15.6731 8.98117 15.5727L6.8095 14.6794C6.52672 14.563 6.20294 14.6109 5.96594 14.8041L5.05693 15.5451L4.47907 14.9673L5.2186 14.138C5.43269 13.8979 5.48949 13.5561 5.36454 13.2597L4.43537 11.0555C4.33596 10.8197 4.1337 10.6426 3.8868 10.5753L2.49998 10.1969V9.8279L3.8336 9.51655C4.09706 9.45504 4.31427 9.26947 4.41614 9.01884L5.31614 6.80467C5.43061 6.52306 5.38265 6.20146 5.19101 5.9655L4.45391 5.05795L5.03338 4.47848L5.86607 5.21931C6.10613 5.43288 6.4476 5.48941 6.74368 5.3646L8.94785 4.43543C9.18609 4.33501 9.36422 4.12969 9.43003 3.87967L9.79318 2.50004H10.1366L10.4924 3.85357C10.5588 4.10621 10.7398 4.3131 10.9814 4.41244L13.2373 5.33994C13.5265 5.45885 13.8579 5.40584 14.0956 5.20267L14.9556 4.46754L15.5355 5.04738L14.801 5.91625C14.5998 6.15435 14.5483 6.48488 14.6675 6.77294L15.5817 8.98128C15.6822 9.22414 15.8914 9.40534 16.1462 9.47015L17.5 9.81457V10.1706L16.1354 10.5252C15.8825 10.5909 15.675 10.7715 15.575 11.0129L14.66 13.2229C14.5406 13.5114 14.5924 13.8425 14.7944 14.0807L15.5346 14.9536Z" fill="#8A8C91"/>
</g>
<defs>
<clipPath id="clip0_1_2141">
<rect width="20" height="20" fill="white"/>
</clipPath>
</defs>
</svg>
