<svg width="14" height="8" viewBox="0 0 14 8" fill="none" xmlns="http://www.w3.org/2000/svg">
<path d="M4.80475 1.13807C5.0651 0.877722 5.0651 0.455612 4.80475 0.195262C4.5444 -0.0650874 4.12229 -0.0650874 3.86194 0.195262L0.528606 3.5286C0.268256 3.78894 0.268256 4.21106 0.528606 4.4714L3.86194 7.80474C4.12229 8.06509 4.5444 8.06509 4.80475 7.80474C5.0651 7.54439 5.0651 7.12228 4.80475 6.86193L1.94282 4L4.80475 1.13807Z" fill="#C0C0C0"/>
<path d="M10.1381 0.195262C9.87773 -0.0650874 9.45562 -0.0650874 9.19527 0.195262C8.93492 0.455612 8.93492 0.877722 9.19527 1.13807L12.0572 4L9.19527 6.86193C8.93492 7.12228 8.93492 7.54439 9.19527 7.80474C9.45562 8.06509 9.87773 8.06509 10.1381 7.80474L13.4714 4.4714C13.7318 4.21106 13.7318 3.78894 13.4714 3.5286L10.1381 0.195262Z" fill="#C0C0C0"/>
</svg>
