<svg width="20" height="20" viewBox="0 0 20 20" fill="none" xmlns="http://www.w3.org/2000/svg">
<path fill-rule="evenodd" clip-rule="evenodd" d="M9.99998 2.5C8.89491 2.5 7.8351 2.93899 7.0537 3.72039C6.2723 4.50179 5.83331 5.5616 5.83331 6.66667C5.83331 7.77174 6.2723 8.83154 7.0537 9.61294C7.10867 9.66791 7.16501 9.72119 7.22265 9.77273C6.50889 10.0998 5.85179 10.5534 5.28593 11.1193C4.03569 12.3695 3.33331 14.0652 3.33331 15.8333V16.6667C3.33331 17.1269 3.70641 17.5 4.16665 17.5C4.62688 17.5 4.99998 17.1269 4.99998 16.6667V15.8333C4.99998 14.5073 5.52676 13.2355 6.46445 12.2978C7.40213 11.3601 8.6739 10.8333 9.99998 10.8333C11.3261 10.8333 12.5978 11.3601 13.5355 12.2978C14.4732 13.2355 15 14.5073 15 15.8333V16.6667C15 17.1269 15.3731 17.5 15.8333 17.5C16.2935 17.5 16.6666 17.1269 16.6666 16.6667V15.8333C16.6666 14.0652 15.9643 12.3695 14.714 11.1193C14.1482 10.5534 13.4911 10.0998 12.7773 9.77273C12.8349 9.72119 12.8913 9.66791 12.9463 9.61294C13.7277 8.83154 14.1666 7.77174 14.1666 6.66667C14.1666 5.5616 13.7277 4.50179 12.9463 3.72039C12.1649 2.93899 11.105 2.5 9.99998 2.5ZM8.23221 4.8989C8.70105 4.43006 9.33694 4.16667 9.99998 4.16667C10.663 4.16667 11.2989 4.43006 11.7677 4.8989C12.2366 5.36774 12.5 6.00363 12.5 6.66667C12.5 7.32971 12.2366 7.96559 11.7677 8.43443C11.2989 8.90327 10.663 9.16667 9.99998 9.16667C9.33694 9.16667 8.70105 8.90327 8.23221 8.43443C7.76337 7.96559 7.49998 7.32971 7.49998 6.66667C7.49998 6.00363 7.76337 5.36774 8.23221 4.8989Z" fill="#8A8C91"/>
</svg>
